<svg xmlns="http://www.w3.org/2000/svg" version="1.1" xmlns:xlink="http://www.w3.org/1999/xlink" xmlns:svgjs="http://svgjs.dev/svgjs" viewBox="0 0 800 800" opacity="0.49"><defs><filter id="bbburst-blur-1" x="-100%" y="-100%" width="400%" height="400%"><feGaussianBlur in="SourceGraphic" stdDeviation="1"></feGaussianBlur></filter><filter id="bbburst-blur-2" x="-100%" y="-100%" width="400%" height="400%"><feGaussianBlur in="SourceGraphic" stdDeviation="2"></feGaussianBlur></filter><filter id="bbburst-blur-3" x="-100%" y="-100%" width="400%" height="400%"><feGaussianBlur in="SourceGraphic" stdDeviation="4"></feGaussianBlur></filter><filter id="bbburst-blur-4" x="-100%" y="-100%" width="400%" height="400%"><feGaussianBlur in="SourceGraphic" stdDeviation="12"></feGaussianBlur></filter><symbol id="bbburst-shape-1" viewBox="0 0 194 167"><path d="m97 0 96.129 166.5H.871L97 0Z"></path></symbol><symbol id="bbburst-shape-2" viewBox="0 0 126 115"><path d="m63 0 62.77 43.877-23.976 70.996H24.206L.23 43.877 63 0Z"></path></symbol><symbol id="bbburst-shape-3" viewBox="0 0 131 127"><path d="m66 0 66 63.5L66 127 0 63.5 66 0Z"></path></symbol><symbol id="bbburst-shape-4" viewBox="0 0 149 143"><path d="M71.647 2.781c.898-2.764 4.808-2.764 5.706 0l15.445 47.534a3 3 0 0 0 2.853 2.073h49.98c2.906 0 4.115 3.719 1.764 5.427L106.96 87.193a2.999 2.999 0 0 0-1.09 3.354l15.445 47.534c.898 2.764-2.266 5.062-4.617 3.354l-40.435-29.378a3 3 0 0 0-3.526 0l-40.435 29.378c-2.351 1.708-5.515-.59-4.617-3.354L43.13 90.547a3 3 0 0 0-1.09-3.354L1.605 57.815c-2.35-1.708-1.142-5.427 1.764-5.427h49.98a3 3 0 0 0 2.853-2.073L71.647 2.781Z"></path></symbol><symbol id="bbburst-shape-5" viewBox="0 0 145 145"><circle cx="72.5" cy="72.5" r="72.5"></circle></symbol><symbol id="bbburst-shape-6" viewBox="0 0 133 116"><path d="M59.7487 10.2513c-13.6683-13.66839-35.8291-13.66839-49.4974 0-13.66839 13.6683-13.66839 35.8291 0 49.4974l49.4974-49.4974ZM66.5 66.5 41.7513 91.2487 66.5 115.997l24.7487-24.7483L66.5 66.5Zm56.249-6.7513c13.668-13.6683 13.668-35.8291 0-49.4974-13.669-13.66839-35.8294-13.66839-49.4977 0l49.4977 49.4974Zm-112.4977 0 31.5 31.5 49.4974-49.4974-31.5-31.5-49.4974 49.4974Zm80.9974 31.5 31.5003-31.5-49.4977-49.4974-31.5 31.5 49.4974 49.4974Z"></path></symbol><symbol id="bbburst-shape-7" viewBox="0 0 139 124"><path fill-rule="evenodd" clip-rule="evenodd" d="M70.1641 15.0917C54.6093.764854 37.8293-2.10782 24.4032 2.82615 10.3804 7.97941.763366 21.4591 1.00047 37.0608c.1068 7.0273 2.86132 13.7317 7.0039 20.2001C12.1442 63.7249 17.853 70.2322 24.25 76.9024c3.8209 3.9842 7.8871 8.0312 12.0767 12.201h.0001c10.0335 9.9862 20.7748 20.6766 30.5497 32.8956 1.38 1.725 3.8972 2.005 5.6223.624.6706-.536 1.1228-1.244 1.3439-2.011 9.5768-11.748 20.0328-22.0735 29.8163-31.7351 4.19-4.1373 8.256-8.1528 12.078-12.1062 6.396-6.6176 12.106-13.0752 16.247-19.4911 4.144-6.4196 6.905-13.0811 7.012-20.0691.237-15.5124-9.399-28.8902-23.411-33.99923-13.32-4.85681-29.9542-2.08621-45.4209 11.88043Zm-3.7351 7.4919C52.1278 8.44857 37.6826 6.46918 27.1626 10.3352 16.2859 14.3323 8.8148 24.7824 8.99955 36.9392c.07575 4.9844 2.03755 10.2234 5.74165 16.0072 3.707 5.7881 8.9752 11.8418 15.2827 18.4187 3.5798 3.7328 7.4978 7.6329 11.6 11.7163 9.0476 9.0063 18.9911 18.9046 28.1786 29.8666 9.2999-11.068 19.4036-21.0473 28.5839-30.1144l.0007-.0006c4.1019-4.0508 8.0189-7.9196 11.5979-11.6222 6.307-6.5252 11.573-12.5298 15.278-18.2697 3.703-5.7362 5.658-10.924 5.734-15.8531.184-12.0276-7.267-22.3914-18.153-26.3608-10.71-3.90518-25.4722-1.80041-40.0023 12.867-1.5547 1.5694-4.0874 1.5813-5.6568.0265-.3146-.3116-.5666-.6625-.7559-1.0371Z"></path></symbol><symbol id="bbburst-shape-8" viewBox="0 0 87 168"><path d="m12 12 31.2546 18.0749c16.4102 9.4902 20.014 31.6325 7.4603 45.8369L36.3296 92.1884c-12.5684 14.2206-8.9394 36.3916 7.5068 45.8636L75 156" stroke-width="14" stroke-linecap="round" stroke-linejoin="round"></path></symbol><symbol id="bbburst-shape-9" viewBox="0 0 182 172"><path d="M13.5809 69.845 91 13.5967l77.419 56.2483-29.571 91.012H43.1524L13.5809 69.845Z" stroke-width="22"></path></symbol><symbol id="bbburst-shape-10" viewBox="0 0 145 145"><circle cx="72.5" cy="72.5" r="61.5" fill="none" stroke-width="22"></circle></symbol><symbol id="bbburst-shape-11" viewBox="0 0 194 167"><path d="M10.398 161 97 11l86.603 150H10.397Z" stroke-width="11"></path></symbol><symbol id="bbburst-shape-12" viewBox="0 0 170 151"><path d="M69.3728 54.2122 85 10.0031l15.627 44.2091c1.413 3.9958 5.19 6.6672 9.428 6.6673h49.312l-39.149 26.1447c-3.803 2.5401-5.399 7.3367-3.875 11.6488l15.179 42.94-40.9683-27.36c-3.3621-2.245-7.7453-2.245-11.1074 0l-40.9682 27.36 15.1785-42.94c1.5243-4.3121-.0712-9.1087-3.8746-11.6488L10.6333 60.8795h49.3112c4.2381-.0001 8.0159-2.6715 9.4283-6.6673Z" stroke-width="12"></path></symbol><symbol id="bbburst-shape-13" viewBox="0 0 159 159"><path stroke-width="22" d="M11 11h137v137H11z"></path></symbol><symbol id="bbburst-shape-14" viewBox="0 0 185 109"><path d="M168 16.5C168 58.1975 134.197 92 92.5 92 50.8025 92 17 58.1975 17 16.5" stroke-width="33" stroke-linecap="round"></path></symbol></defs><use xlink:href="#bbburst-shape-5" width="27.214866045853288" opacity="0.6459862948343492" transform="matrix(0.8029062137971678,0.5961053697509332,-0.5961053697509332,0.8029062137971678,704.0023626792624,-69.01797342841814)" fill="#900024" filter="url(#bbburst-blur-1)"></use><use xlink:href="#bbburst-shape-11" width="24.03165892048381" opacity="0.7115830306760617" transform="matrix(0.9826913725735893,-0.18525028007923508,0.18525028007923508,0.9826913725735893,190.91843390256065,-32.23081156548892)" fill="none" stroke="#c51f4a" filter="url(#bbburst-blur-1)"></use><use xlink:href="#bbburst-shape-11" width="40.84267439567042" opacity="0.40629122012326924" transform="matrix(0.9986970781299401,-0.05103083513641701,0.05103083513641701,0.9986970781299401,119.64037072920917,-117.31223129752203)" fill="none" stroke="#e03e5e" filter="url(#bbburst-blur-2)"></use><use xlink:href="#bbburst-shape-4" width="34.473609764722895" opacity="0.4052244219903418" transform="matrix(0.8391408309072583,-0.5439142082206311,0.5439142082206311,0.8391408309072583,425.4391039050357,0.5708099941534215)" fill="#aa0036" filter="url(#bbburst-blur-2)"></use><use xlink:href="#bbburst-shape-6" width="41.094092801379716" opacity="0.3884372653283584" transform="matrix(0.9540076821228922,0.29978215832585287,-0.29978215832585287,0.9540076821228922,317.8646975531857,218.27240293090745)" fill="#aa0036" filter="url(#bbburst-blur-2)"></use><use xlink:href="#bbburst-shape-6" width="38.21342336635303" opacity="0.5666903847961045" transform="matrix(0.9683773376183402,0.24949014406828812,-0.24949014406828812,0.9683773376183402,658.4078903473262,89.43813491192924)" fill="#e03e5e" filter="url(#bbburst-blur-1)"></use><use xlink:href="#bbburst-shape-8" width="29.839948108719035" opacity="0.778427318885223" transform="matrix(0.9983656655426779,0.05714890957425001,-0.05714890957425001,0.9983656655426779,310.84727505117945,22.38356093570883)" fill="none" stroke="#760013"></use><use xlink:href="#bbburst-shape-6" width="29.27160958177803" opacity="0.19279588753188426" transform="matrix(0.9357690517778493,0.8287558637709811,-0.8287558637709811,0.9357690517778493,750.3934244258337,-348.214002217482)" fill="#e03e5e" filter="url(#bbburst-blur-3)"></use><use xlink:href="#bbburst-shape-6" width="36.489042200511335" opacity="0.1552168811899609" transform="matrix(0.9262606282441099,-0.8393695542279496,0.8393695542279496,0.9262606282441099,406.5185030442792,-79.75423998693509)" fill="#c51f4a" filter="url(#bbburst-blur-3)"></use><use xlink:href="#bbburst-shape-11" width="48.31611197862767" opacity="0.05610359471897086" transform="matrix(1.5230756733579884,-0.8618239340057284,0.8618239340057284,1.5230756733579884,364.81039541732014,-434.5031891468558)" fill="none" stroke="#900024" filter="url(#bbburst-blur-4)"></use><use xlink:href="#bbburst-shape-2" width="29.540296412515612" opacity="0.760117826544035" transform="matrix(0.8997459004331914,-0.4364141549648289,0.4364141549648289,0.8997459004331914,305.1703696072199,-8.211604852893515)" fill="#c51f4a" filter="url(#bbburst-blur-1)"></use><use xlink:href="#bbburst-shape-10" width="22.75605551512144" opacity="0.8390052595777802" transform="matrix(0.9998496308952303,0.017341153325886392,-0.017341153325886392,0.9998496308952303,377.0630652175693,-70.18370581269107)" fill="none" stroke="#760013"></use><use xlink:href="#bbburst-shape-14" width="21.35979819617851" opacity="0.8651099074391463" transform="matrix(0.9946366677467274,0.10343064910212083,-0.10343064910212083,0.9946366677467274,468.9804351194219,-46.07645856266572)" fill="none" stroke="#c51f4a"></use><use xlink:href="#bbburst-shape-7" width="30.336466387601284" opacity="0.44683899342703826" transform="matrix(0.8433811893819351,-0.5373157073794814,0.5373157073794814,0.8433811893819351,-61.365146621471126,156.97066830149356)" fill="#c51f4a" filter="url(#bbburst-blur-2)"></use><use xlink:href="#bbburst-shape-14" width="30.793034121825162" opacity="0.27549499444847747" transform="matrix(0.936054041375894,0.828433963345212,-0.828433963345212,0.936054041375894,997.586092825946,-153.04223504989062)" fill="none" stroke="#760013" filter="url(#bbburst-blur-3)"></use><use xlink:href="#bbburst-shape-6" width="34.3095289253814" opacity="0.29146000872589173" transform="matrix(1.2458977720642153,-0.10118666693505018,0.10118666693505018,1.2458977720642153,61.91253541207692,62.601710869419094)" fill="#900024" filter="url(#bbburst-blur-3)"></use><use xlink:href="#bbburst-shape-8" width="37.46860858865626" opacity="-0.06566210023314989" transform="matrix(1.725296150429315,-0.29300715573819397,0.29300715573819397,1.725296150429315,581.1536919742821,62.671533023594975)" fill="none" stroke="#aa0036" filter="url(#bbburst-blur-4)"></use><use xlink:href="#bbburst-shape-14" width="34.823209017017575" opacity="0.23353964431745755" transform="matrix(1.2497402995768179,0.025479081883877683,-0.025479081883877683,1.2497402995768179,614.3618230547673,-360.8878604027865)" fill="none" stroke="#760013" filter="url(#bbburst-blur-3)"></use><use xlink:href="#bbburst-shape-7" width="16.654946850493324" opacity="0.9121035144724935" transform="matrix(0.8244836727240701,0.5658857423645064,-0.5658857423645064,0.8244836727240701,580.2939615795053,71.1018389723144)" fill="#900024"></use><use xlink:href="#bbburst-shape-2" width="50.13563511204218" opacity="0.0544517628150375" transform="matrix(1.5119527618424622,0.8811917191831473,-0.8811917191831473,1.5119527618424622,359.6169631786547,-461.4977186824319)" fill="#900024" filter="url(#bbburst-blur-4)"></use><use xlink:href="#bbburst-shape-5" width="24.463963495775314" opacity="0.5970530947831841" transform="matrix(0.8848295715413924,0.4659148305493998,-0.4659148305493998,0.8848295715413924,751.2994890423848,-4.225821486638267)" fill="#aa0036" filter="url(#bbburst-blur-1)"></use><use xlink:href="#bbburst-shape-5" width="27.82618633928114" opacity="0.6290399766364188" transform="matrix(0.9359941263418892,0.35201561819539146,-0.35201561819539146,0.9359941263418892,364.008425973064,53.015191387448624)" fill="#aa0036" filter="url(#bbburst-blur-1)"></use><use xlink:href="#bbburst-shape-14" width="38.580899053667366" opacity="-0.07731954953011111" transform="matrix(1.3770500356659274,-1.079922774679962,1.079922774679962,1.3770500356659274,-400.0856698493537,-473.90493746754737)" fill="none" stroke="#c51f4a" filter="url(#bbburst-blur-4)"></use><use xlink:href="#bbburst-shape-6" width="20.644280681554118" opacity="0.8963354167971401" transform="matrix(0.9530032280355274,-0.3029601415266776,0.3029601415266776,0.9530032280355274,278.0898897409148,67.67682290099879)" fill="#760013"></use><use xlink:href="#bbburst-shape-12" width="37.31091294242233" opacity="0.5345332247124341" transform="matrix(0.8358135413802006,0.5490134097137225,-0.5490134097137225,0.8358135413802006,633.4628688865437,-152.0086904140683)" fill="none" stroke="#760013" filter="url(#bbburst-blur-2)"></use><use xlink:href="#bbburst-shape-6" width="31.879066869263667" opacity="0.4605339089956234" transform="matrix(0.8301049502333968,-0.5576071839548068,0.5576071839548068,0.8301049502333968,289.8684222484811,-130.56712302103284)" fill="#760013" filter="url(#bbburst-blur-2)"></use><use xlink:href="#bbburst-shape-7" width="31.5091703557488" opacity="0.3674336372387105" transform="matrix(0.970451841473804,-0.24129488883957456,0.24129488883957456,0.970451841473804,556.3468223196559,110.83122267110167)" fill="#e03e5e" filter="url(#bbburst-blur-2)"></use><use xlink:href="#bbburst-shape-10" width="29.587207036377446" opacity="0.45390773096775616" transform="matrix(0.9859617211245816,0.16697150797981347,-0.16697150797981347,0.9859617211245816,206.64186610611176,12.567601339752855)" fill="none" stroke="#aa0036" filter="url(#bbburst-blur-2)"></use><use xlink:href="#bbburst-shape-4" width="24.07231093425017" opacity="0.85996324872227" transform="matrix(0.9439431939644574,-0.3301079316953453,0.3301079316953453,0.9439431939644574,318.26228221002145,39.422906470149826)" fill="#aa0036"></use><use xlink:href="#bbburst-shape-8" width="42.806265290202894" opacity="0.08145464231517485" transform="matrix(1.7499087749199855,-0.017868392709898505,0.017868392709898505,1.7499087749199855,129.45098318419417,-645.7051602424829)" fill="none" stroke="#900024" filter="url(#bbburst-blur-4)"></use><use xlink:href="#bbburst-shape-14" width="39.95004089621777" opacity="0.39564504389032484" transform="matrix(0.9933986826899882,0.11471293401267421,-0.11471293401267421,0.9933986826899882,532.4359524624113,250.68482899069346)" fill="none" stroke="#760013" filter="url(#bbburst-blur-2)"></use><use xlink:href="#bbburst-shape-11" width="27.737131559664295" opacity="0.7710386193018077" transform="matrix(0.9391755097321732,-0.34343756626104927,0.34343756626104927,0.9391755097321732,286.80538156686686,124.79003851734547)" fill="none" stroke="#760013" filter="url(#bbburst-blur-1)"></use><use xlink:href="#bbburst-shape-4" width="23.79015051271466" opacity="0.734767299871735" transform="matrix(0.9878862272255483,-0.1551799022363155,0.1551799022363155,0.9878862272255483,424.46458019286035,74.4309681673343)" fill="#aa0036" filter="url(#bbburst-blur-1)"></use><use xlink:href="#bbburst-shape-9" width="42.75556569202357" opacity="0.2009304521198394" transform="matrix(1.006631266558943,-0.7410759024458551,0.7410759024458551,1.006631266558943,-269.29452780830917,90.39646857364198)" fill="none" stroke="#760013" filter="url(#bbburst-blur-3)"></use><use xlink:href="#bbburst-shape-14" width="31.202076786068616" opacity="0.4420212938387311" transform="matrix(0.831221368874081,-0.5559415760015605,0.5559415760015605,0.831221368874081,362.0154173196589,-79.03707879887787)" fill="none" stroke="#760013" filter="url(#bbburst-blur-2)"></use><use xlink:href="#bbburst-shape-4" width="41.42220606404182" opacity="0.22981875919571837" transform="matrix(1.2254791405382468,0.2463754778902316,-0.2463754778902316,1.2254791405382468,819.4932217338979,-108.36161047134107)" fill="#900024" filter="url(#bbburst-blur-3)"></use><use xlink:href="#bbburst-shape-2" width="43.948437029368634" opacity="0.21857586926260486" transform="matrix(0.9264213638100818,0.8391921452660696,-0.8391921452660696,0.9264213638100818,700.6293990901754,362.3460607756675)" fill="#900024" filter="url(#bbburst-blur-3)"></use><use xlink:href="#bbburst-shape-8" width="25.736144230378954" opacity="0.7521550890083201" transform="matrix(0.8318046838470776,0.5550684353573558,-0.5550684353573558,0.8318046838470776,638.5501820877365,-48.020449880065144)" fill="none" stroke="#5c0000" filter="url(#bbburst-blur-1)"></use><use xlink:href="#bbburst-shape-10" width="34.09693179663054" opacity="0.6081318025484781" transform="matrix(0.9158405173393945,-0.40154221048292066,0.40154221048292066,0.9158405173393945,256.743615900234,213.7397836952871)" fill="none" stroke="#900024" filter="url(#bbburst-blur-1)"></use><use xlink:href="#bbburst-shape-13" width="31.971275065789932" opacity="0.32620608319488176" transform="matrix(1.219196729094765,0.27578857076504515,-0.27578857076504515,1.219196729094765,189.07894245731205,-121.81094985365183)" fill="none" stroke="#900024" filter="url(#bbburst-blur-3)"></use><use xlink:href="#bbburst-shape-2" width="35.193892441761776" opacity="0.5855192616059748" transform="matrix(0.947315317870868,0.32030249534965594,-0.32030249534965594,0.947315317870868,373.77481895863207,-110.38341907419056)" fill="#5c0000" filter="url(#bbburst-blur-1)"></use><use xlink:href="#bbburst-shape-8" width="36.719503730574345" opacity="0.41798605245826137" transform="matrix(0.9784260854308863,0.20659718136603897,-0.20659718136603897,0.9784260854308863,651.2624927477988,188.63008551907728)" fill="none" stroke="#c51f4a" filter="url(#bbburst-blur-2)"></use><use xlink:href="#bbburst-shape-8" width="39.0027314270918" opacity="0.5407230141903084" transform="matrix(0.9045943272813072,-0.4262735073288972,0.4262735073288972,0.9045943272813072,128.7080303428527,235.6889635885172)" fill="none" stroke="#c51f4a" filter="url(#bbburst-blur-2)"></use><use xlink:href="#bbburst-shape-13" width="27.77680468710272" opacity="0.6084835148139474" transform="matrix(0.7882140914982774,-0.6154011260661987,0.6154011260661987,0.7882140914982774,282.0062089859348,-14.84801981066505)" fill="none" stroke="#900024" filter="url(#bbburst-blur-1)"></use><use xlink:href="#bbburst-shape-13" width="21.887677122893727" opacity="0.9729003182004122" transform="matrix(0.8676237969012544,0.497221225462722,-0.497221225462722,0.8676237969012544,594.5526387019775,36.4592507223893)" fill="none" stroke="#c51f4a"></use><use xlink:href="#bbburst-shape-14" width="30.401797748242906" opacity="0.70173534266942" transform="matrix(0.9750155898647775,-0.22213644347706643,0.22213644347706643,0.9750155898647775,430.19631447888696,23.182610350611583)" fill="none" stroke="#5c0000" filter="url(#bbburst-blur-1)"></use><use xlink:href="#bbburst-shape-14" width="42.820567692227065" opacity="0.19263011998654" transform="matrix(1.2356385509243373,-0.18893748031982444,0.18893748031982444,1.2356385509243373,-37.289166462629154,-230.11390026876882)" fill="none" stroke="#aa0036" filter="url(#bbburst-blur-3)"></use><use xlink:href="#bbburst-shape-10" width="34.71226641564671" opacity="0.1808905615996128" transform="matrix(1.2417708152539866,-0.14319651665962355,0.14319651665962355,1.2417708152539866,429.0983750062636,258.220856741907)" fill="none" stroke="#aa0036" filter="url(#bbburst-blur-3)"></use><use xlink:href="#bbburst-shape-6" width="23.548411246344543" opacity="0.6709628770524874" transform="matrix(0.8618743790770763,0.5071218341685794,-0.5071218341685794,0.8618743790770763,564.1860275092363,-96.01556672574216)" fill="#c51f4a" filter="url(#bbburst-blur-1)"></use><use xlink:href="#bbburst-shape-4" width="44.885983675623365" opacity="0.37223888494029855" transform="matrix(0.8761967435483189,-0.481953593819282,0.481953593819282,0.8761967435483189,166.47011496405156,-221.32961420854997)" fill="#760013" filter="url(#bbburst-blur-2)"></use><use xlink:href="#bbburst-shape-11" width="37.50838586158398" opacity="0.44364986091428893" transform="matrix(0.7571895428631268,-0.6531952205724787,0.6531952205724787,0.7571895428631268,124.02501359690251,359.3658316581774)" fill="none" stroke="#760013" filter="url(#bbburst-blur-2)"></use><use xlink:href="#bbburst-shape-7" width="47.96839912962174" opacity="0.22484585469230078" transform="matrix(1.2420597613148603,0.14066822428136389,-0.14066822428136389,1.2420597613148603,170.4317034191842,-337.35689485868215)" fill="#c51f4a" filter="url(#bbburst-blur-3)"></use><use xlink:href="#bbburst-shape-3" width="41.20637985674912" opacity="0.07794478000725347" transform="matrix(1.4945144550661216,0.9104540315679939,-0.9104540315679939,1.4945144550661216,379.53321001859763,0.3513119474658879)" fill="#c51f4a" filter="url(#bbburst-blur-4)"></use><use xlink:href="#bbburst-shape-5" width="27.582435203976544" opacity="0.4668790235047642" transform="matrix(0.9514109902042766,-0.30792389923245306,0.30792389923245306,0.9514109902042766,503.2592468087813,36.71999117480624)" fill="#aa0036" filter="url(#bbburst-blur-2)"></use><use xlink:href="#bbburst-shape-7" width="35.881091527183756" opacity="0.3089766930847131" transform="matrix(1.2487298789520445,0.05633550756327822,-0.05633550756327822,1.2487298789520445,500.95525757173885,-394.6312515351503)" fill="#900024" filter="url(#bbburst-blur-3)"></use><use xlink:href="#bbburst-shape-5" width="42.225703268741185" opacity="0.2416663453161716" transform="matrix(1.1696205366180155,0.4410077100475517,-0.4410077100475517,1.1696205366180155,823.4856840303989,129.21219155509567)" fill="#900024" filter="url(#bbburst-blur-3)"></use><use xlink:href="#bbburst-shape-12" width="41.52552362370439" opacity="0.10446089581811913" transform="matrix(1.730901349367317,-0.2578381638904548,0.2578381638904548,1.730901349367317,448.53749579449504,-643.7853820314606)" fill="none" stroke="#760013" filter="url(#bbburst-blur-4)"></use><use xlink:href="#bbburst-shape-6" width="45.15609674396419" opacity="-0.06582723102626886" transform="matrix(1.7091541274504929,-0.37588850556906367,0.37588850556906367,1.7091541274504929,539.7207320512377,-624.4827313900446)" fill="#900024" filter="url(#bbburst-blur-4)"></use><use xlink:href="#bbburst-shape-4" width="19.663056116944695" opacity="0.8356183735161514" transform="matrix(0.8478369743756127,0.5302569800404392,-0.5302569800404392,0.8478369743756127,539.823590057001,18.4617029572172)" fill="#e03e5e"></use><use xlink:href="#bbburst-shape-12" width="26.965465947475725" opacity="0.7207055075136255" transform="matrix(0.8934782026074165,0.44910655914317293,-0.44910655914317293,0.8934782026074165,489.96392039756506,-62.312907836243426)" fill="none" stroke="#900024" filter="url(#bbburst-blur-1)"></use><use xlink:href="#bbburst-shape-12" width="33.63421046919477" opacity="0.05120029210183208" transform="matrix(1.740075035756528,0.18611520608729742,-0.18611520608729742,1.740075035756528,801.142028831709,-63.47800200828533)" fill="none" stroke="#760013" filter="url(#bbburst-blur-4)"></use><use xlink:href="#bbburst-shape-12" width="43.53664302699473" opacity="0.3158293597088032" transform="matrix(0.9251094371134628,0.8406381679198321,-0.8406381679198321,0.9251094371134628,579.2035726223214,-264.1416821811756)" fill="none" stroke="#c51f4a" filter="url(#bbburst-blur-3)"></use><use xlink:href="#bbburst-shape-12" width="22.755569213524662" opacity="0.832832126134283" transform="matrix(0.9864813885807822,-0.16387333518218256,0.16387333518218256,0.9864813885807822,280.7291308053243,69.3071889171353)" fill="none" stroke="#aa0036"></use><use xlink:href="#bbburst-shape-14" width="48.729174547907974" opacity="0.16859046833600522" transform="matrix(1.246965551214079,-0.08704547136622356,0.08704547136622356,1.246965551214079,89.163854746199,185.61619159601952)" fill="none" stroke="#900024" filter="url(#bbburst-blur-3)"></use><use xlink:href="#bbburst-shape-2" width="37.74242400775037" opacity="0.1730148206072295" transform="matrix(1.2263662032125864,0.24192134179924157,-0.24192134179924157,1.2263662032125864,830.6626813769807,9.84884934760862)" fill="#5c0000" filter="url(#bbburst-blur-3)"></use><use xlink:href="#bbburst-shape-11" width="31.053490531931303" opacity="0.7029671431737085" transform="matrix(0.96213855779968,0.27256081082054284,-0.27256081082054284,0.96213855779968,463.3837589191196,140.59282967176324)" fill="none" stroke="#aa0036" filter="url(#bbburst-blur-1)"></use><use xlink:href="#bbburst-shape-9" width="26.973942438710743" opacity="0.7027549302839157" transform="matrix(0.969088613483305,-0.2467129084928582,0.2467129084928582,0.969088613483305,192.34263852260318,108.80665084040737)" fill="none" stroke="#aa0036" filter="url(#bbburst-blur-1)"></use><use xlink:href="#bbburst-shape-2" width="42.6599246509821" opacity="-0.06786272386890824" transform="matrix(1.7338953748456762,-0.23686880142553945,0.23686880142553945,1.7338953748456762,-65.38355130528949,57.34917877918474)" fill="#aa0036" filter="url(#bbburst-blur-4)"></use><use xlink:href="#bbburst-shape-5" width="25.66335781426044" opacity="0.5641663461000207" transform="matrix(0.7726909342713496,0.6347824194910165,-0.6347824194910165,0.7726909342713496,455.29495133782484,29.334667914365355)" fill="#760013" filter="url(#bbburst-blur-1)"></use><use xlink:href="#bbburst-shape-2" width="45.77990133284171" opacity="0.13898317785145087" transform="matrix(1.1699162317766378,0.44022268299753964,-0.44022268299753964,1.1699162317766378,764.3093197385223,244.31003189470925)" fill="#c51f4a" filter="url(#bbburst-blur-3)"></use><use xlink:href="#bbburst-shape-7" width="27.25359548222889" opacity="0.5578427201396712" transform="matrix(0.7301631391288986,-0.6832728519833292,0.6832728519833292,0.7301631391288986,-39.09839279302028,241.11031391711236)" fill="#c51f4a" filter="url(#bbburst-blur-1)"></use><use xlink:href="#bbburst-shape-14" width="34.52908173895408" opacity="0.4196589890475916" transform="matrix(0.7189750967858879,0.695035833753716,-0.695035833753716,0.7189750967858879,490.388397416628,-93.23828933344956)" fill="none" stroke="#c51f4a" filter="url(#bbburst-blur-2)"></use><use xlink:href="#bbburst-shape-5" width="39.77702089339861" opacity="0.1716488582500707" transform="matrix(1.1431787218229148,0.5056109274643167,-0.5056109274643167,1.1431787218229148,479.02498412872114,-426.28644916965385)" fill="#c51f4a" filter="url(#bbburst-blur-3)"></use><use xlink:href="#bbburst-shape-3" width="38.42413902042529" opacity="0.11796574321816988" transform="matrix(1.159262435442525,0.46755813090124526,-0.46755813090124526,1.159262435442525,396.7786587932415,286.9436866405119)" fill="#5c0000" filter="url(#bbburst-blur-3)"></use><use xlink:href="#bbburst-shape-14" width="31.06962848289985" opacity="0.5973442979562114" transform="matrix(0.7404073938392061,0.6721583824875168,-0.6721583824875168,0.7404073938392061,765.9597436822479,238.45005287983935)" fill="none" stroke="#900024" filter="url(#bbburst-blur-1)"></use><use xlink:href="#bbburst-shape-3" width="32.75037306933768" opacity="0.17240895750984064" transform="matrix(1.1153440408373276,0.5643648381753257,-0.5643648381753257,1.1153440408373276,238.01116030193793,-103.28270047096811)" fill="#900024" filter="url(#bbburst-blur-3)"></use><use xlink:href="#bbburst-shape-3" width="30.31691533715734" opacity="0.5203108471549672" transform="matrix(0.9965686489162795,0.08277033283236927,-0.08277033283236927,0.9965686489162795,341.59101504733303,-201.8189416319818)" fill="#5c0000" filter="url(#bbburst-blur-2)"></use><use xlink:href="#bbburst-shape-3" width="31.16750625900296" opacity="0.32812394158017477" transform="matrix(1.19403058611752,0.36985261850614487,-0.36985261850614487,1.19403058611752,424.5396442062439,200.23482095519938)" fill="#760013" filter="url(#bbburst-blur-3)"></use></svg>