<svg xmlns="http://www.w3.org/2000/svg" version="1.1" xmlns:xlink="http://www.w3.org/1999/xlink" xmlns:svgjs="http://svgjs.dev/svgjs" viewBox="0 0 800 800" opacity="0.45"><defs><linearGradient x1="50%" y1="0%" x2="50%" y2="100%" id="ccchaos-grad"><stop stop-color="#E03E5E" stop-opacity="1" offset="0%"></stop><stop stop-color="#23252C" stop-opacity="1" offset="100%"></stop></linearGradient></defs><g stroke-width="3.5" stroke="url(#ccchaos-grad)" fill="none" stroke-linecap="round"><path d="M363.08 87.18Q370.94 94.43 379.06 101.95 387.46 109.67 396.15 117.48 405.14 125.27 414.43 132.96 424.01 140.42 433.9 147.55 444.09 154.27 454.57 160.48 465.33 166.13 476.36 171.17 487.65 175.56 499.18 179.31 510.94 182.42 522.9 184.95 535.04 186.94 547.34 188.48 559.77 189.68 572.3 190.64 584.9 191.49 597.54 192.36 610.19 193.39 622.82 194.71 635.38 196.45 647.85 198.72 660.2 201.63 672.39 205.24 684.38 209.63 696.14 214.81 707.65 220.8 718.87 227.57 722.39 236.64 724.35 245.71 724.68 254.78 723.38 263.85 720.48 272.92 716.06 281.99 710.24 291.06 703.17 300.13 695.05 309.2 686.09 318.27 676.54 327.34 666.65 336.41 656.69 345.48 646.92 354.56 637.62 363.63 629.02 372.7 621.37 381.77 614.86 390.84 609.68 399.91 605.96 408.98 603.8 418.05 603.26 427.12 604.35 436.19 607.06 445.26 611.29 454.33 616.94 463.4 623.86 472.47 631.86 481.54 640.72 490.61 650.21 499.68 661.22 518.55 654.99 528.18 650.61 534.31 645.94 541.88 640.95 550.81 635.63 560.97 629.97 572.19 623.96 584.28 617.59 596.99 610.85 610.07 603.75 623.23 596.28 636.19 588.45 648.68 580.27 660.41 571.75 671.16 562.89 680.71 553.71 688.87 544.23 695.52 534.47 700.58 524.44 704.01 514.17 705.85 503.68 706.17 493 705.11 482.14 702.85 471.14 699.61 460.02 695.65 448.81 691.26 437.53 686.74 426.21 682.42 414.88 678.59 409 666.39 402.9 655.4 396.57 645.81 390 637.76 376 627.46 361.25 622.07 345.31 623.81 328.67 628.71 319.98 632.38 311.1 636.3 302.03 640.18 292.81 643.73 283.43 646.68 273.92 648.77 264.3 649.79 254.58 649.56 244.79 647.94 234.95 644.84 225.06 640.22 215.16 634.1 205.26 626.55 195.38 617.66 185.53 607.61 175.73 596.57 165.99 584.78 156.34 572.47 146.77 559.91 137.31 547.36 135.14 537.9 132.99 528.44 130.92 518.98 128.99 509.52 127.25 500.06 125.74 490.6 124.51 481.14 123.59 471.68 123 462.22 122.76 452.76 122.88 443.3 123.35 433.84 124.16 424.38 125.29 414.92 126.71 405.46 128.37 396 130.25 386.54 132.27 377.08 134.4 367.62 136.57 358.16 138.73 348.7 140.81 339.24 142.76 329.78 144.53 320.32 146.07 310.86 147.34 301.4 148.3 291.94 148.94 282.48 149.22 273.02 149.15 263.56 152.53 249.23 164.58 243.91 180.52 241.74 195.98 237.98 210.6 230.84 224.71 221.46 231.49 215.5 238.12 208.9 244.6 201.73 250.95 194.08 257.19 186.07 263.32 177.81 269.37 169.44 275.34 161.07 281.26 152.83 287.14 144.82 293.02 137.17 298.9 129.94 310.82 117.35 322.96 106.49 335.71 98.49 348.95 92 359.49 88.32 363.08 87.18" stroke-dasharray="0 0" transform="rotate(0, 400, 400)" opacity="1.00"></path><path d="M364.74 100.63Q372.95 107.67 381.41 114.97 390.14 122.46 399.13 130.05 408.38 137.64 417.89 145.14 427.66 152.45 437.69 159.48 447.95 166.14 458.46 172.35 469.18 178.04 480.12 183.18 491.25 187.71 502.56 191.63 514.02 194.94 525.62 197.66 537.33 199.83 549.13 201.52 560.99 202.81 572.9 203.78 584.81 204.54 596.71 205.21 608.56 205.9 620.34 206.74 632.02 207.84 643.57 209.33 654.96 211.31 666.16 213.86 677.14 217.07 687.89 220.98 698.37 225.65 708.56 231.07 710.94 248.25 708.96 265.44 705.49 274.03 700.7 282.62 694.72 291.21 687.68 299.8 679.78 308.4 671.19 316.99 662.13 325.58 652.82 334.17 643.5 342.76 634.38 351.35 625.69 359.95 617.65 368.54 610.45 377.13 604.27 385.72 599.26 394.31 595.54 402.91 593.06 420.09 594.92 437.27 598.35 445.87 603.09 454.46 609.03 463.05 616.02 471.64 623.9 480.24 632.47 488.83 642.61 509.91 636.95 523.14 633.03 530.64 628.88 539.33 624.48 549.1 619.82 559.8 614.87 571.26 609.63 583.27 604.09 595.61 598.24 608.03 592.07 620.3 585.57 632.18 578.76 643.44 571.63 653.85 564.17 663.24 556.41 671.44 548.35 678.32 539.99 683.8 531.35 687.83 522.44 690.41 513.27 691.59 503.87 691.45 494.25 690.13 484.44 687.79 474.44 684.63 464.28 680.88 453.98 676.79 443.56 672.63 433.05 668.66 422.47 665.14 416.36 653.59 410.01 643.11 403.43 633.87 396.61 626.01 382.15 615.45 367.01 609.34 350.79 609.85 333.98 613.46 325.26 616.57 316.38 620.06 307.36 623.68 298.21 627.17 288.95 630.31 279.6 632.85 270.16 634.58 260.66 635.33 251.12 634.94 241.55 633.31 231.97 630.35 222.4 626.03 212.84 620.36 203.33 613.4 193.86 605.23 184.45 595.98 175.13 585.8 165.89 574.88 156.74 563.43 147.7 551.65 145.47 542.47 143.3 533.3 141.24 524.13 139.35 514.96 137.68 505.79 136.25 496.61 135.11 487.44 134.29 478.27 133.81 469.1 133.67 459.93 133.88 450.76 134.44 441.58 135.33 432.41 136.53 423.24 138.02 414.07 139.74 404.9 141.67 395.72 143.76 386.55 145.95 377.38 148.18 368.21 150.42 359.04 152.59 349.87 154.65 340.7 156.55 331.52 158.23 322.35 159.67 313.18 160.82 304.01 161.65 294.84 162.15 285.67 162.3 276.49 165.89 262.54 177.69 257.05 193.19 253.9 208.25 248.96 222.51 240.58 236.29 230.14 242.9 223.79 249.36 216.9 255.67 209.55 261.84 201.83 267.88 193.86 273.79 185.75 279.6 177.6 285.31 169.54 290.93 161.66 296.49 154.07 307.47 140.32 318.41 128.06 329.47 118.56 340.73 110.69 358.63 102.89 364.74 100.63" stroke-dasharray="0 0" transform="rotate(1.619047619047619, 400, 400)" opacity="0.95"></path><path d="M368.41 114.07Q385.59 127.96 403.68 142.56 422.66 157.24 442.48 171.28 463.05 184.04 484.27 194.98 506.02 203.73 528.14 210.18 550.49 214.47 572.86 216.99 595.09 218.37 616.98 219.39 638.33 220.91 658.96 223.77 678.69 228.68 697.37 236.16 698.34 252.46 694.14 268.77 685.16 285.08 672.17 301.38 656.34 317.69 639.06 334 621.86 350.3 606.27 366.61 593.66 382.92 585.16 399.22 581.51 415.53 583.03 431.84 589.6 448.14 600.63 464.45 615.15 480.76 631.86 497.07 625.57 506.36 618.87 520.23 611.57 538.21 603.52 559.35 594.58 582.33 584.66 605.59 573.68 627.51 561.58 646.56 548.36 661.53 534.04 671.62 518.64 676.55 502.25 676.64 484.95 672.74 466.86 666.15 448.09 658.54 428.79 651.7 415.76 630.82 401.84 614.3 387.07 602.91 371.49 596.84 355.17 595.7 338.22 598.55 320.72 604.06 302.79 610.62 284.55 616.54 266.12 620.24 247.63 620.42 229.19 616.19 210.9 607.17 192.86 593.51 175.15 575.86 157.85 555.3 153.46 537.57 149.64 519.84 146.74 502.11 145.02 484.38 144.62 466.65 145.57 448.92 147.81 431.19 151.12 413.46 155.22 395.73 159.74 378 164.28 360.27 168.44 342.54 171.85 324.81 174.21 307.08 175.32 289.35 175.06 271.62 190.7 269.65 205.84 265.58 220.44 258.98 234.45 249.75 247.85 238.04 260.63 224.3 272.82 209.18 284.46 193.44 295.6 177.9 306.33 163.28 316.73 150.22 326.94 139.1 337.07 130.11 347.26 123.17 363.03 116.03 368.41 114.07" stroke-dasharray="0 0" transform="rotate(3.238095238095238, 400, 400)" opacity="0.91"></path><path d="M373.86 127.51Q391.31 140.92 409.5 155.02 428.4 169.24 447.93 182.95 467.99 195.56 488.48 206.57 509.27 215.59 530.22 222.47 551.19 227.24 572.02 230.17 592.54 231.72 612.61 232.53 632.06 233.33 650.75 234.89 668.54 237.92 685.3 243.01 684.39 258.52 678.96 274.02 669.47 289.52 656.65 305.03 641.55 320.53 625.36 336.03 609.38 351.54 594.89 367.04 583.05 382.54 574.8 398.05 570.8 413.55 571.38 429.05 576.48 444.56 585.7 460.06 598.3 475.57 613.28 491.07 607.19 503.21 600.87 519.13 594.16 538.16 586.91 559.26 579 581.18 570.31 602.57 560.77 622.07 550.3 638.5 538.87 650.98 526.47 658.99 513.09 662.45 498.78 661.75 483.59 657.7 467.58 651.48 450.84 644.49 433.47 638.26 419.88 618.53 405.51 602.63 390.39 591.24 374.6 584.58 358.23 582.41 341.35 584.03 324.09 588.39 306.53 594.19 288.79 600.02 270.98 604.48 253.2 606.34 235.55 604.68 218.11 598.92 200.96 588.89 184.16 574.89 167.77 557.57 163.48 540.5 159.87 523.44 157.23 506.38 155.76 489.31 155.6 472.25 156.74 455.19 159.11 438.12 162.5 421.06 166.65 404 171.23 386.94 175.87 369.88 180.2 352.81 183.87 335.75 186.59 318.69 188.14 301.63 188.4 284.56 203.54 281.36 218.25 275.88 232.46 267.95 246.15 257.61 259.27 245.18 271.81 231.16 283.77 216.18 295.17 200.96 306.04 186.19 316.44 172.51 326.45 160.4 336.13 150.19 345.6 141.99 354.96 135.68 369.1 129.25 373.86 127.51" stroke-dasharray="0 0" transform="rotate(4.857142857142857, 400, 400)" opacity="0.86"></path><path d="M380.8 140.95Q398.23 153.86 416.23 167.43 434.73 181.16 453.67 194.5 472.93 206.91 492.42 217.93 512.02 227.18 531.6 234.48 551.04 239.76 570.2 243.2 588.95 245.11 607.17 245.99 624.73 246.43 641.52 247.09 657.44 248.64 672.4 251.7 669.87 266.46 663.47 281.22 653.66 295.98 641.14 310.75 626.82 325.51 611.73 340.27 596.93 355.04 583.51 369.8 572.42 384.56 564.46 399.32 560.2 414.09 559.94 428.85 563.71 443.61 571.24 458.38 581.97 473.14 595.15 487.9 589.16 502.23 583.1 519.45 576.81 538.77 570.18 559.18 563.08 579.56 555.4 598.78 547.06 615.76 537.98 629.64 528.11 639.79 517.42 645.93 505.88 648.11 493.51 646.78 480.31 642.68 466.33 636.84 451.62 630.46 436.25 624.82 422.2 606.23 407.48 590.98 392.17 579.67 376.33 572.54 360.05 569.45 343.42 569.89 326.54 573.08 309.5 577.97 292.39 583.41 275.3 588.21 258.33 591.26 241.54 591.64 225.01 588.68 208.8 582.02 192.95 571.63 177.5 557.83 173.4 541.5 170.06 525.17 167.72 508.84 166.55 492.51 166.63 476.17 167.95 459.84 170.43 443.51 173.88 427.18 178.06 410.85 182.66 394.52 187.35 378.19 191.81 361.85 195.7 345.52 198.75 329.19 200.75 312.86 201.53 296.53 216.16 291.87 230.43 284.95 244.26 275.76 257.62 264.52 270.47 251.6 282.78 237.52 294.55 222.89 305.77 208.33 316.46 194.45 326.65 181.76 336.39 170.65 345.74 161.35 354.76 153.92 363.55 148.24 376.5 142.5 380.8 140.95" stroke-dasharray="0 0" transform="rotate(6.476190476190476, 400, 400)" opacity="0.82"></path><path d="M388.83 154.4Q405.93 166.78 423.43 179.79 441.25 192.99 459.31 205.91 477.52 218.07 495.78 229.04 514 238.48 532.06 246.15 549.86 251.96 567.28 255.97 584.23 258.4 600.61 259.58 616.33 259.98 631.29 260.16 650.13 268.45 647.69 290.28 637.76 304.35 625.66 318.42 612.17 332.49 598.16 346.55 584.52 360.62 572.13 374.69 561.79 388.76 554.14 402.83 549.7 416.9 548.73 430.97 551.3 445.04 557.25 459.1 566.2 473.17 577.57 487.24 571.6 502.99 565.68 520.71 559.69 539.6 553.5 558.76 547.02 577.22 540.13 594.08 532.77 608.54 524.85 619.97 516.3 627.99 507.09 632.47 497.18 633.58 486.55 631.76 475.2 627.69 463.13 622.25 450.38 616.46 436.97 611.37 422.61 593.91 407.73 579.35 392.4 568.2 376.7 560.71 360.7 556.82 344.48 556.17 328.14 558.19 311.75 562.07 295.39 566.88 279.14 571.65 263.06 575.4 247.22 577.28 231.66 576.6 216.43 572.87 201.57 565.87 187.09 555.63 183.26 540.1 180.25 524.57 178.24 509.04 177.38 493.5 177.7 477.97 179.2 462.44 181.77 446.91 185.26 431.37 189.43 415.84 194.02 400.31 198.74 384.78 203.28 369.25 207.35 353.71 210.7 338.18 213.1 322.65 214.41 307.12 228.51 300.93 242.31 292.65 255.75 282.4 268.77 270.5 281.35 257.35 293.44 243.46 305.02 229.38 316.1 215.64 326.66 202.74 336.73 191.09 346.32 180.99 355.47 172.59 364.23 165.92 372.67 160.84 384.84 155.76 388.83 154.4" stroke-dasharray="0 0" transform="rotate(8.095238095238095, 400, 400)" opacity="0.77"></path><path d="M397.49 167.83Q413.97 179.66 430.67 192.09 447.53 204.73 464.47 217.19 481.42 229.04 498.28 239.89 514.97 249.44 531.4 257.43 547.5 263.75 563.16 268.36 578.33 271.4 592.91 273.08 606.85 273.74 620.09 273.82 635.95 280.66 631.69 300.95 621.8 314.35 610.22 327.75 597.6 341.16 584.67 354.56 572.15 367.97 560.76 381.37 551.14 394.78 543.84 408.18 539.28 421.59 537.72 434.99 539.23 448.4 543.75 461.8 551 475.21 560.59 488.61 554.6 504.96 548.75 522.42 542.94 540.26 537.06 557.69 531.03 573.96 524.75 588.38 518.15 600.37 511.15 609.52 495.45 617.25 478.1 616.71 468.39 612.74 458.07 607.72 447.13 602.5 435.59 597.94 421.13 581.6 406.3 567.76 391.17 556.85 375.8 549.11 360.27 544.53 344.65 542.9 329 543.78 313.41 546.59 297.92 550.59 282.59 555.01 267.49 559.02 252.65 561.88 238.11 562.91 223.91 561.59 210.06 557.57 196.58 550.69 193.09 536.03 190.46 521.36 188.82 506.69 188.27 492.02 188.83 477.35 190.49 462.69 193.14 448.02 196.64 433.35 200.77 418.68 205.32 404.02 210.02 389.35 214.61 374.68 218.81 360.01 222.41 345.35 225.18 330.68 226.97 316.01 240.54 308.38 253.85 298.93 266.86 287.9 279.52 275.63 291.79 262.53 303.65 249.07 315.05 235.71 325.99 222.92 336.45 211.08 346.44 200.5 355.96 191.41 365.02 183.91 373.67 177.97 381.93 173.48 393.67 169.01 397.49 167.83" stroke-dasharray="0 0" transform="rotate(9.714285714285714, 400, 400)" opacity="0.73"></path><path d="M406.3 181.27Q421.87 192.53 437.52 204.34 453.2 216.4 468.82 228.34 484.33 239.81 499.66 250.49 514.74 260.06 529.5 268.31 543.87 275.07 557.79 280.28 571.21 283.98 584.07 286.3 596.33 287.46 607.95 287.78 621.15 293.87 615.49 312.88 605.81 325.63 594.83 338.38 583.11 351.13 571.24 363.88 559.8 376.63 549.37 389.37 540.48 402.12 533.55 414.87 528.95 427.62 526.9 440.37 527.49 453.12 530.72 465.87 536.4 478.61 544.26 491.36 538.23 507.51 532.4 524.03 526.69 540.29 521.01 555.68 515.29 569.61 509.45 581.58 497 596.96 483.61 604.54 468.18 600.93 451.33 593.23 442.01 588.56 432.19 584.49 417.87 569.27 403.33 556.17 388.62 545.58 373.79 537.7 358.92 532.57 344.05 530.06 329.26 529.88 314.57 531.59 300.06 534.66 285.75 538.47 271.69 542.37 257.91 545.7 244.44 547.88 231.29 548.39 218.48 546.82 206.01 542.91 202.94 529.17 200.72 515.42 199.46 501.68 199.23 487.94 200.03 474.2 201.83 460.46 204.53 446.72 208.01 432.97 212.09 419.23 216.56 405.49 221.2 391.75 225.78 378 230.08 364.26 233.86 350.52 236.96 336.78 239.2 323.03 252.2 314.17 264.99 303.84 277.53 292.35 289.8 280.03 301.74 267.26 313.32 254.45 324.51 241.99 335.3 230.25 345.66 219.52 355.58 210.04 365.07 201.96 374.12 195.32 382.74 190.1 390.96 186.16 402.55 182.29 406.3 181.27" stroke-dasharray="0 0" transform="rotate(11.333333333333332, 400, 400)" opacity="0.68"></path><path d="M414.75 194.72Q429.18 205.37 443.57 216.55 457.88 227.97 472.04 239.36 486.01 250.4 499.74 260.81 513.16 270.33 526.23 278.73 538.9 285.87 551.14 291.63 562.89 296 574.12 299.03 584.82 300.86 594.94 301.69 605.82 307.65 599.16 325.61 589.81 337.7 579.51 349.78 568.71 361.87 557.88 373.95 547.49 386.04 538 398.12 529.8 410.21 523.27 422.29 518.69 434.38 516.26 446.46 516.08 458.54 518.15 470.63 522.4 482.71 528.63 494.8 522.56 510.03 516.72 525.05 511.05 539.35 505.5 552.48 499.99 564.02 494.46 573.64 483.02 585.2 471.02 590.13 457.63 586.02 443.19 578.8 435.28 574.64 426.95 571.05 413.04 556.93 399.03 544.61 384.95 534.4 370.87 526.48 356.83 520.93 342.88 517.67 329.06 516.51 315.4 517.17 301.95 519.23 288.74 522.25 275.78 525.71 263.11 529.09 250.73 531.88 238.66 533.62 226.9 533.9 215.46 532.4 212.85 519.63 211.06 506.87 210.19 494.1 210.27 481.33 211.29 468.56 213.21 455.8 215.95 443.03 219.39 430.26 223.38 417.49 227.74 404.72 232.29 391.96 236.82 379.19 241.14 366.42 245.07 353.65 248.42 340.88 251.06 328.11 263.44 318.34 275.67 307.5 287.72 295.9 299.53 283.84 311.09 271.67 322.35 259.72 333.29 248.3 343.89 237.69 354.12 228.12 363.97 219.73 373.42 212.64 382.47 206.84 406.97 197.05 414.75 194.72" stroke-dasharray="0 0" transform="rotate(12.952380952380953, 400, 400)" opacity="0.64"></path><path d="M422.36 208.15Q435.46 218.19 448.44 228.7 461.26 239.47 473.88 250.25 486.25 260.79 498.35 270.86 510.13 280.23 521.55 288.69 532.59 296.1 543.22 302.33 553.4 307.33 563.13 311.09 585.76 321 582.73 338.62 573.84 350.02 564.28 361.42 554.41 372.81 544.6 384.21 535.22 395.61 526.62 407 519.12 418.4 513 429.8 508.5 441.19 505.79 452.59 504.96 463.98 506.05 475.38 509.01 486.78 513.74 498.17 507.63 511.9 501.79 525 496.14 537.11 490.66 547.9 479.96 563.58 469.29 573.67 458.2 574.74 446.61 571.49 433.84 564.45 420.19 557.62 406.94 544.59 393.67 533.07 380.45 523.3 367.29 515.45 354.24 509.6 341.33 505.72 328.6 503.71 316.06 503.36 303.75 504.4 291.67 506.5 279.86 509.29 268.32 512.35 257.06 515.28 246.08 517.68 229.12 513.46 221.52 495.96 221.03 484.2 221.4 472.44 222.62 460.69 224.65 448.93 227.4 437.17 230.77 425.41 234.64 413.65 238.86 401.89 243.27 390.13 247.71 378.37 252.01 366.61 256.01 354.85 259.56 343.08 262.52 331.32 274.25 321.05 285.88 310.1 297.36 298.74 308.68 287.26 319.79 275.93 330.68 265.01 341.3 254.74 351.65 245.32 361.69 236.9 371.41 229.6 380.8 223.46 389.83 218.48 414.5 210.12 422.36 208.15" stroke-dasharray="0 0" transform="rotate(14.571428571428571, 400, 400)" opacity="0.59"></path><path d="M428.7 221.6Q440.35 230.99 451.82 240.81 463.09 250.88 474.14 261.01 484.92 271 495.41 280.65 505.6 289.76 515.45 298.17 524.95 305.72 534.07 312.31 542.82 317.85 551.16 322.29 570.16 334.11 566.25 351.35 557.92 362.02 549.15 372.7 540.21 383.37 531.39 394.04 522.98 404.71 515.24 415.39 508.42 426.06 502.74 436.73 498.38 447.4 495.48 458.08 494.13 468.75 494.38 479.42 496.22 490.09 499.59 500.76 493.49 512.57 487.66 523.51 482.04 533.33 476.61 541.82 466.17 553.49 455.94 560.39 437.71 556.73 424.12 550.09 418.31 546.91 412.28 544.17 399.91 532.23 387.61 521.53 375.4 512.26 363.32 504.59 351.39 498.57 339.63 494.22 328.07 491.47 316.72 490.22 305.59 490.28 294.7 491.41 284.05 493.36 273.66 495.83 263.52 498.5 253.64 501.05 238.5 498.54 232.11 483.16 231.99 472.42 232.64 461.69 234.03 450.96 236.13 440.22 238.87 429.49 242.15 418.76 245.87 408.02 249.92 397.29 254.16 386.55 258.47 375.82 262.69 365.09 266.69 354.35 270.36 343.62 273.56 332.88 284.6 322.54 295.57 311.88 306.44 301.11 317.19 290.48 327.8 280.19 338.23 270.43 348.47 261.39 358.49 253.18 368.27 245.93 377.79 239.68 387.04 234.45 395.99 230.23 420.76 223.23 428.7 221.6" stroke-dasharray="0 0" transform="rotate(16.19047619047619, 400, 400)" opacity="0.55"></path><path d="M433.41 235.03Q443.54 243.76 453.48 252.86 463.21 262.21 472.7 271.65 481.93 281.02 490.9 290.17 499.58 298.93 507.96 307.16 516.04 314.73 523.79 321.53 538.17 332.04 551.57 339.75 557.34 347.67 549.77 363.25 542.09 373.15 534.13 383.06 526.12 392.97 518.26 402.87 510.77 412.78 503.86 422.68 497.7 432.59 492.47 442.5 488.3 452.4 485.3 462.31 483.57 472.21 483.13 482.12 484.02 492.02 486.19 501.93 480.16 511.58 474.38 520.26 463.52 533.53 453.15 542.97 436.05 544.92 423.93 541.47 413.96 535.9 403.68 530.74 392.38 519.87 381.2 510 370.16 501.3 359.27 493.89 348.56 487.83 338.02 483.15 327.69 479.82 317.56 477.79 307.65 476.93 297.95 477.11 288.48 478.15 279.23 479.83 270.21 481.94 261.41 484.23 248.08 482.6 242.88 469.02 243.1 459.31 243.99 449.61 245.53 439.9 247.67 430.19 250.36 420.49 253.53 410.78 257.08 401.07 260.93 391.37 264.96 381.66 269.08 371.95 273.17 362.24 277.12 352.54 280.82 342.83 284.18 333.12 294.48 323.15 304.73 313.15 314.93 303.28 325.06 293.72 335.08 284.62 344.98 276.12 354.74 268.34 364.34 261.35 373.77 255.22 382.99 249.98 392.01 245.62 400.79 242.11 425.45 236.36 433.41 235.03" stroke-dasharray="0 0" transform="rotate(17.80952380952381, 400, 400)" opacity="0.50"></path><path d="M436.22 248.48Q453.29 264.88 469.52 282.18 484.84 299.44 499.17 315.67 512.48 329.97 524.75 341.64 535.99 350.23 546.24 355.64 533.33 373.82 519.23 392 505.2 410.19 492.49 428.37 482.2 446.55 475.26 464.74 472.29 482.92 473.53 501.11 461.97 515.04 451.21 524.96 441.11 530.63 431.51 532.26 422.25 530.53 413.16 526.53 404.08 521.62 394.86 517.29 374.85 498.48 355.45 483.33 336.73 472.49 318.76 466.06 301.56 463.71 285.13 464.63 269.47 467.7 254.52 471.57 253.84 454.19 255.47 436.8 259.27 419.42 264.91 402.04 271.88 384.65 279.57 367.27 287.29 349.89 294.37 332.5 313.37 314.27 332.26 297.21 350.91 282.21 369.19 269.88 386.97 260.54 404.14 254.14 428.4 249.4 436.22 248.48" stroke-dasharray="0 0" transform="rotate(19.428571428571427, 400, 400)" opacity="0.46"></path><path d="M436.97 261.92Q451.17 276.85 464.63 292.61 477.32 308.47 489.2 323.72 500.28 337.63 510.55 349.62 520.05 359.22 528.81 366.2 516.96 382.66 504.46 399.13 492.22 415.59 481.11 432.06 471.93 448.52 465.34 464.99 461.81 481.45 461.6 497.92 450.43 507.76 439.97 514.24 430.13 517.39 420.8 517.56 411.87 515.37 403.23 511.67 394.75 507.47 386.33 503.85 368.94 486.95 352.15 472.91 336 462.22 320.5 455.06 305.66 451.29 291.47 450.47 277.89 451.92 264.89 454.76 265.02 439.36 267.08 423.96 270.93 408.55 276.29 393.15 282.77 377.75 289.92 362.35 297.22 346.95 304.14 331.55 321.48 315.61 338.81 301.19 356.02 288.81 373.02 278.83 389.71 271.37 405.99 266.3 429.37 262.62 436.97 261.92" stroke-dasharray="0 0" transform="rotate(21.047619047619047, 400, 400)" opacity="0.41"></path><path d="M435.63 275.36Q447.18 288.78 458.14 302.92 468.48 317.29 478.21 331.34 487.33 344.55 495.87 356.44 503.85 366.62 511.32 374.8 500.71 389.47 489.83 404.14 479.31 418.81 469.73 433.48 461.64 448.15 455.51 462.82 451.67 477.49 450.36 492.16 439.74 498.44 429.73 502.12 420.26 503.37 411.27 502.56 394.55 496.78 378.59 490.41 363.87 475.43 349.68 462.61 336.04 452.33 322.94 444.76 310.37 439.9 298.32 437.55 281.6 431.26 278.83 411.72 282.64 398.24 287.66 384.75 293.62 371.27 300.16 357.78 306.91 344.3 313.5 330.81 329.1 317.55 344.74 305.86 360.36 296.04 375.88 288.25 391.24 282.49 406.37 278.62 428.41 275.86 435.63 275.36" stroke-dasharray="0 0" transform="rotate(22.666666666666664, 400, 400)" opacity="0.37"></path><path d="M432.25 288.8Q441.46 300.67 450.21 313.15 458.52 325.9 466.38 338.56 473.82 350.75 480.86 362.14 487.52 372.4 493.84 381.27 484.61 394.08 475.35 406.9 466.47 419.72 458.35 432.53 451.34 445.35 445.76 458.16 441.85 470.98 439.76 483.79 429.89 487.22 420.49 488.8 403.18 486.88 386.97 482.2 379.4 479.35 372.05 476.97 359.95 463.9 348.28 452.42 337.04 442.78 326.22 435.16 315.81 429.58 305.78 425.99 292.12 418.29 290.73 400.72 294.41 389.08 299.04 377.43 304.4 365.79 310.27 354.14 316.39 342.5 322.49 330.85 336.26 320.41 350.1 311.41 363.98 303.98 377.85 298.17 391.66 293.92 405.37 291.09 425.58 289.14 432.25 288.8" stroke-dasharray="0 0" transform="rotate(24.285714285714285, 400, 400)" opacity="0.32"></path><path d="M427.05 302.24Q434.22 312.52 441.09 323.29 447.65 334.33 453.92 345.43 459.92 356.33 465.67 366.8 471.18 376.62 476.48 385.58 468.7 396.51 461.03 407.43 453.71 418.36 446.97 429.28 441.03 440.21 436.09 451.13 426.55 468.19 412.21 474.48 396.18 471.79 381.06 467.62 373.97 465.38 367.11 463.53 357.47 452.37 348.16 442.32 339.16 433.56 330.46 426.2 322.05 420.31 313.91 415.9 303.07 407.11 302.78 391.46 306.25 381.58 310.42 371.7 315.15 361.83 320.29 351.95 325.67 342.08 331.13 332.2 342.99 324.5 354.95 318 366.97 312.71 379.03 308.62 391.1 305.66 403.15 303.71 421.09 302.44 427.05 302.24" stroke-dasharray="0 0" transform="rotate(25.904761904761905, 400, 400)" opacity="0.28"></path><path d="M420.31 315.68Q431.05 333.34 441.07 352 450.45 370.54 459.32 387.86 446.88 405.91 435.59 423.96 426.47 442.01 420.32 460.06 404.85 459.43 390.37 456.72 376.79 453.16 364.03 450.09 349.48 432.3 335.75 417.85 322.77 407.27 310.41 400.67 315 384.32 321.8 367.97 330.21 351.62 339.48 335.27 359.37 325.75 379.55 319.62 399.92 316.5 420.31 315.68 420.31 315.68 420.31 315.68" stroke-dasharray="0 0" transform="rotate(27.523809523809526, 400, 400)" opacity="0.23"></path><path d="M412.42 329.12Q420.41 343.34 428.04 358.34 435.35 373.56 442.42 388.41 432.89 402.68 424.21 416.95 416.89 431.21 411.34 445.49 398.34 443.91 385.97 441.47 374.2 438.82 363 436.65 352.33 422.34 342.15 410.04 332.39 400.07 322.99 392.6 327.39 379.55 333.18 366.51 340.04 353.46 347.57 340.42 363.44 334.75 379.58 331.19 404.17 329.29 412.42 329.12" stroke-dasharray="0 0" transform="rotate(29.142857142857142, 400, 400)" opacity="0.19"></path><path d="M403.81 342.57Q409.52 353.28 415.07 364.52 420.5 376.06 425.85 387.63 419.07 398.18 412.84 408.73 399.96 423.75 382.73 426.38 373.23 424.61 364.06 423.2 356.76 412.44 349.68 402.72 342.81 394.2 336.11 387.01 339.95 377.2 344.56 367.41 349.79 357.61 355.47 347.81 367.3 345.01 379.31 343.31 397.65 342.57 403.81 342.57" stroke-dasharray="0 0" transform="rotate(30.761904761904763, 400, 400)" opacity="0.14"></path><path d="M395 356Q402.39 370.62 409.67 386.05 401.45 399.91 394.52 413.76 380.55 411.54 367.17 409.77 358.32 395.8 349.76 383.75 355.93 370.62 363.24 357.47 386.96 355.99 395 356" stroke-dasharray="0 0" transform="rotate(32.38095238095238, 400, 400)" opacity="0.10"></path></g></svg>