<svg xmlns="http://www.w3.org/2000/svg" version="1.1" xmlns:xlink="http://www.w3.org/1999/xlink" xmlns:svgjs="http://svgjs.dev/svgjs" viewBox="0 0 1422 800"><symbol id="SvgjsSymbol1051"><polygon points="0,50 100,0 200,50 100,100"></polygon></symbol><symbol id="SvgjsSymbol1052"><polygon points="0,50 100,100 100,200 0,150"></polygon></symbol><symbol id="SvgjsSymbol1053"><polygon points="100,100 200,50 200,150 100,200"></polygon></symbol><g shape-rendering="crispEdges"><g transform="translate(0 -150)"><use xlink:href="#SvgjsSymbol1051" x="600" y="200" fill="#ffcac9"></use><use xlink:href="#SvgjsSymbol1052" x="600" y="200" fill="#fffdfc"></use><use xlink:href="#SvgjsSymbol1053" x="600" y="200" fill="#cb9998"></use></g><g transform="translate(0 -150)"><use xlink:href="#SvgjsSymbol1051" x="700" y="300" fill="#ffcac9"></use><use xlink:href="#SvgjsSymbol1052" x="700" y="300" fill="#fffdfc"></use><use xlink:href="#SvgjsSymbol1053" x="700" y="300" fill="#cb9998"></use></g><g transform="translate(0 -150)"><use xlink:href="#SvgjsSymbol1051" x="800" y="400" fill="#ffcac9"></use><use xlink:href="#SvgjsSymbol1052" x="800" y="400" fill="#fffdfc"></use><use xlink:href="#SvgjsSymbol1053" x="800" y="400" fill="#cb9998"></use></g><g transform="translate(0 -150)"><use xlink:href="#SvgjsSymbol1051" x="900" y="500" fill="#ffcac9"></use><use xlink:href="#SvgjsSymbol1052" x="900" y="500" fill="#fffdfc"></use><use xlink:href="#SvgjsSymbol1053" x="900" y="500" fill="#cb9998"></use></g><g transform="translate(0 -150)"><use xlink:href="#SvgjsSymbol1051" x="1000" y="600" fill="#ffcac9"></use><use xlink:href="#SvgjsSymbol1052" x="1000" y="600" fill="#fffdfc"></use><use xlink:href="#SvgjsSymbol1053" x="1000" y="600" fill="#cb9998"></use></g><g transform="translate(0 -150)"><use xlink:href="#SvgjsSymbol1051" x="500" y="300" fill="#ffcac9"></use><use xlink:href="#SvgjsSymbol1052" x="500" y="300" fill="#fffdfc"></use><use xlink:href="#SvgjsSymbol1053" x="500" y="300" fill="#cb9998"></use></g><g transform="translate(0 -150)"><use xlink:href="#SvgjsSymbol1051" x="400" y="400" fill="#ffcac9"></use><use xlink:href="#SvgjsSymbol1052" x="400" y="400" fill="#fffdfc"></use><use xlink:href="#SvgjsSymbol1053" x="400" y="400" fill="#cb9998"></use></g><g transform="translate(0 -150)"><use xlink:href="#SvgjsSymbol1051" x="300" y="500" fill="#ffcac9"></use><use xlink:href="#SvgjsSymbol1052" x="300" y="500" fill="#fffdfc"></use><use xlink:href="#SvgjsSymbol1053" x="300" y="500" fill="#cb9998"></use></g><g transform="translate(0 -150)"><use xlink:href="#SvgjsSymbol1051" x="200" y="600" fill="#ffcac9"></use><use xlink:href="#SvgjsSymbol1052" x="200" y="600" fill="#fffdfc"></use><use xlink:href="#SvgjsSymbol1053" x="200" y="600" fill="#cb9998"></use></g><g transform="translate(0 -150)"><use xlink:href="#SvgjsSymbol1051" x="600" y="400" fill="#9ea3bd"></use><use xlink:href="#SvgjsSymbol1052" x="600" y="400" fill="#cfd4f0"></use><use xlink:href="#SvgjsSymbol1053" x="600" y="400" fill="#6f748d"></use></g><g transform="translate(0 -150)"><use xlink:href="#SvgjsSymbol1051" x="700" y="500" fill="#9ea3bd"></use><use xlink:href="#SvgjsSymbol1052" x="700" y="500" fill="#cfd4f0"></use><use xlink:href="#SvgjsSymbol1053" x="700" y="500" fill="#6f748d"></use></g><g transform="translate(0 -150)"><use xlink:href="#SvgjsSymbol1051" x="800" y="600" fill="#9ea3bd"></use><use xlink:href="#SvgjsSymbol1052" x="800" y="600" fill="#cfd4f0"></use><use xlink:href="#SvgjsSymbol1053" x="800" y="600" fill="#6f748d"></use></g><g transform="translate(0 -150)"><use xlink:href="#SvgjsSymbol1051" x="900" y="700" fill="#9ea3bd"></use><use xlink:href="#SvgjsSymbol1052" x="900" y="700" fill="#cfd4f0"></use><use xlink:href="#SvgjsSymbol1053" x="900" y="700" fill="#6f748d"></use></g><g transform="translate(0 -150)"><use xlink:href="#SvgjsSymbol1051" x="500" y="500" fill="#9ea3bd"></use><use xlink:href="#SvgjsSymbol1052" x="500" y="500" fill="#cfd4f0"></use><use xlink:href="#SvgjsSymbol1053" x="500" y="500" fill="#6f748d"></use></g><g transform="translate(0 -150)"><use xlink:href="#SvgjsSymbol1051" x="400" y="600" fill="#9ea3bd"></use><use xlink:href="#SvgjsSymbol1052" x="400" y="600" fill="#cfd4f0"></use><use xlink:href="#SvgjsSymbol1053" x="400" y="600" fill="#6f748d"></use></g><g transform="translate(0 -150)"><use xlink:href="#SvgjsSymbol1051" x="300" y="700" fill="#9ea3bd"></use><use xlink:href="#SvgjsSymbol1052" x="300" y="700" fill="#cfd4f0"></use><use xlink:href="#SvgjsSymbol1053" x="300" y="700" fill="#6f748d"></use></g><g transform="translate(0 -150)"><use xlink:href="#SvgjsSymbol1051" x="600" y="600" fill="#4ce0ff"></use><use xlink:href="#SvgjsSymbol1052" x="600" y="600" fill="#8bffff"></use><use xlink:href="#SvgjsSymbol1053" x="600" y="600" fill="#00aecc"></use></g><g transform="translate(0 -150)"><use xlink:href="#SvgjsSymbol1051" x="700" y="700" fill="#4ce0ff"></use><use xlink:href="#SvgjsSymbol1052" x="700" y="700" fill="#8bffff"></use><use xlink:href="#SvgjsSymbol1053" x="700" y="700" fill="#00aecc"></use></g><g transform="translate(0 -150)"><use xlink:href="#SvgjsSymbol1051" x="500" y="700" fill="#4ce0ff"></use><use xlink:href="#SvgjsSymbol1052" x="500" y="700" fill="#8bffff"></use><use xlink:href="#SvgjsSymbol1053" x="500" y="700" fill="#00aecc"></use></g><g><use xlink:href="#SvgjsSymbol1051" x="600" y="650" fill="#24bce5"></use><use xlink:href="#SvgjsSymbol1052" x="600" y="650" fill="#6eefff"></use><use xlink:href="#SvgjsSymbol1053" x="600" y="650" fill="#008cb3"></use></g><g><use xlink:href="#SvgjsSymbol1051" x="400" y="650" fill="#24bce5"></use><use xlink:href="#SvgjsSymbol1052" x="400" y="650" fill="#6eefff"></use><use xlink:href="#SvgjsSymbol1053" x="400" y="650" fill="#008cb3"></use></g><g><use xlink:href="#SvgjsSymbol1051" x="800" y="650" fill="#24bce5"></use><use xlink:href="#SvgjsSymbol1052" x="800" y="650" fill="#6eefff"></use><use xlink:href="#SvgjsSymbol1053" x="800" y="650" fill="#008cb3"></use></g><g><use xlink:href="#SvgjsSymbol1051" x="1100" y="550" fill="#ffcac9"></use><use xlink:href="#SvgjsSymbol1052" x="1100" y="550" fill="#fffdfc"></use><use xlink:href="#SvgjsSymbol1053" x="1100" y="550" fill="#cb9998"></use></g><g><use xlink:href="#SvgjsSymbol1051" x="100" y="550" fill="#ffcac9"></use><use xlink:href="#SvgjsSymbol1052" x="100" y="550" fill="#fffdfc"></use><use xlink:href="#SvgjsSymbol1053" x="100" y="550" fill="#cb9998"></use></g><g><use xlink:href="#SvgjsSymbol1051" x="0" y="650" fill="#ffcac9"></use><use xlink:href="#SvgjsSymbol1052" x="0" y="650" fill="#fffdfc"></use><use xlink:href="#SvgjsSymbol1053" x="0" y="650" fill="#cb9998"></use></g><g><use xlink:href="#SvgjsSymbol1051" x="1200" y="650" fill="#ffcac9"></use><use xlink:href="#SvgjsSymbol1052" x="1200" y="650" fill="#fffdfc"></use><use xlink:href="#SvgjsSymbol1053" x="1200" y="650" fill="#cb9998"></use></g><g><use xlink:href="#SvgjsSymbol1051" x="1000" y="650" fill="#9ea3bd"></use><use xlink:href="#SvgjsSymbol1052" x="1000" y="650" fill="#cfd4f0"></use><use xlink:href="#SvgjsSymbol1053" x="1000" y="650" fill="#6f748d"></use></g><g><use xlink:href="#SvgjsSymbol1051" x="200" y="650" fill="#9ea3bd"></use><use xlink:href="#SvgjsSymbol1052" x="200" y="650" fill="#cfd4f0"></use><use xlink:href="#SvgjsSymbol1053" x="200" y="650" fill="#6f748d"></use></g></g><g></g></svg>