<svg xmlns="http://www.w3.org/2000/svg" version="1.1" xmlns:xlink="http://www.w3.org/1999/xlink" xmlns:svgjs="http://svgjs.dev/svgjs" viewBox="0 0 600 600"><path d="M584.7902221679688,405.9440612792969C501.9230872790019,409.79021708170575,95.62937196095784,413.63636779785156,13.11188793182373,410.1398620605469C-69.40559609731038,406.6433563232422,67.30769522984822,398.07691446940106,89.68531799316406,384.96502685546875C112.0629407564799,371.85313924153644,130.76923370361328,357.34266153971356,147.37762451171875,331.4685363769531C163.98601531982422,305.5944112141927,180.5944035847982,261.7132848103841,189.33566284179688,229.72027587890625C198.07692209879556,197.72726694742838,188.1118927001953,159.96502812703451,199.82518005371094,139.51048278808594C211.53846740722656,119.05593744913737,239.33566538492838,113.28670883178711,259.6153869628906,106.99300384521484C279.89510854085285,100.69929885864258,301.5734405517578,97.72727330525716,321.5035095214844,101.74825286865234C341.43357849121094,105.76923243204753,365.73426310221356,109.61538569132487,379.19580078125,131.11888122558594C392.65733846028644,152.62237675984701,391.9580485026042,197.37761688232422,402.2727355957031,230.76922607421875C412.58742268880206,264.1608352661133,423.0769297281901,305.4195861816406,441.08392333984375,331.4685363769531C459.0909169514974,357.5174865722656,486.3636474609375,374.6503397623698,510.314697265625,387.06292724609375C534.2657470703125,399.4755147298177,667.6573570569357,402.097905476888,584.7902221679688,405.9440612792969C501.9230872790019,409.79021708170575,95.62937196095784,413.63636779785156,13.11188793182373,410.1398620605469" fill="hsl(340, 100%, 100%)"></path></svg>